<svg width="24" height="24" viewBox="0 0 24 24" fill="none" xmlns="http://www.w3.org/2000/svg">
<circle cx="12" cy="12" r="9" fill="black"/>
<path d="M12.8613 14.04H11.1182L10.9336 7.10156H13.0527L12.8613 14.04ZM11.9932 17.123C11.7881 17.123 11.5967 17.0706 11.4189 16.9658C11.2412 16.8564 11.0999 16.7152 10.9951 16.542C10.8949 16.3643 10.8447 16.1729 10.8447 15.9678C10.8447 15.7673 10.8949 15.5804 10.9951 15.4072C11.0999 15.2295 11.2412 15.0905 11.4189 14.9902C11.5967 14.89 11.7881 14.8398 11.9932 14.8398C12.1937 14.8398 12.3805 14.89 12.5537 14.9902C12.7314 15.0905 12.8727 15.2295 12.9775 15.4072C13.0869 15.5804 13.1416 15.7673 13.1416 15.9678C13.1416 16.1729 13.0869 16.3643 12.9775 16.542C12.8727 16.7152 12.7314 16.8564 12.5537 16.9658C12.3805 17.0706 12.1937 17.123 11.9932 17.123Z" fill="white"/>
</svg>
