<svg width="41" height="41" viewBox="0 0 41 41" fill="none" xmlns="http://www.w3.org/2000/svg">
<path d="M30.762 34.2859C29.2287 35.7163 27.3012 36.6533 25.2292 36.9757C24.208 37.1886 23.1723 37.3252 22.1308 37.3842C21.4159 37.4353 20.82 37.4523 20.4284 37.4523C20.0369 37.4523 19.4409 37.4353 18.726 37.3842C16.2235 37.214 12.2058 36.5671 10.0948 34.286C8.15431 32.1921 7.49019 27.4765 7.69463 23.7482C7.79688 21.7224 8.27317 18.0793 10.2312 16.3599C14.419 12.6828 26.4378 12.6828 30.6257 16.3599C32.5837 18.0793 33.06 21.7224 33.1623 23.7482C33.3667 27.4764 32.7026 32.192 30.762 34.2859Z" fill="white"/>
<path d="M33.8344 13.6611C28.8237 11.3063 12.0343 11.3063 7.02188 13.6611C6.37114 14.0408 5.84449 14.6011 5.50574 15.2741C5.167 15.9471 5.0307 16.7039 5.11336 17.4528C5.09494 18.1234 5.27973 18.7839 5.64348 19.3476C6.00722 19.9114 6.53292 20.3519 7.15155 20.6115C11.4765 21.7773 15.9516 22.2895 20.4281 22.1309C24.9052 22.2894 29.3808 21.7772 33.7064 20.6114C34.3245 20.3518 34.8498 19.9114 35.2132 19.3479C35.5767 18.7845 35.7613 18.1244 35.7429 17.4541C35.8262 16.705 35.6902 15.9478 35.3514 15.2745C35.0126 14.6012 34.4856 14.0407 33.8344 13.6611Z" fill="#FFC9C0"/>
<path d="M20.4405 15.3165C20.193 15.3173 19.9483 15.2642 19.7234 15.1611C19.4985 15.058 19.2986 14.9072 19.1377 14.7192C18.9768 14.5312 18.8587 14.3104 18.7916 14.0722C18.7244 13.8341 18.7099 13.5841 18.7489 13.3398L19.3773 9.55928C19.5554 7.93284 20.3041 6.42213 21.4905 5.29539C22.6769 4.16866 24.2242 3.49881 25.8577 3.40479C26.5077 3.41926 27.147 3.57292 27.7326 3.8554C28.3182 4.13788 28.8365 4.54261 29.2524 5.04232C29.7412 5.5715 30.1146 6.19648 30.349 6.87761C30.5834 7.55875 30.6736 8.28116 30.614 8.99903C30.3331 11.3199 28.2915 12.3888 26.3165 13.4246C24.5771 14.2006 22.7687 14.8117 20.9151 15.25C20.7608 15.2942 20.601 15.3166 20.4405 15.3165ZM25.8577 6.80955C25.0335 6.91122 24.2706 7.29733 23.7006 7.90129C23.1306 8.50525 22.7893 9.28919 22.7355 10.1179L22.5526 11.2234C23.3025 11.0175 24.0325 10.7448 24.7338 10.4088H24.7355C25.876 9.81199 27.1677 9.13374 27.2326 8.59007C27.2266 8.1093 27.0382 7.64875 26.7056 7.30164C26.6038 7.16762 26.4764 7.05513 26.3309 6.97066C26.1854 6.88619 26.0245 6.83143 25.8577 6.80955Z" fill="#FFC9C0"/>
<path d="M20.4291 15.3215C20.2699 15.3215 20.1115 15.2991 19.9586 15.255C18.0994 14.815 16.2855 14.2022 14.5405 13.4246C12.5663 12.3888 10.5256 11.3182 10.2438 8.99903C10.1835 8.28118 10.2733 7.55862 10.5076 6.8774C10.7419 6.19617 11.1155 5.57121 11.6046 5.04232C12.0207 4.54259 12.5391 4.13785 13.1248 3.85538C13.7105 3.5729 14.35 3.41925 15.0002 3.40479C16.6335 3.49898 18.1806 4.1689 19.3668 5.29562C20.553 6.42234 21.3016 7.93296 21.4797 9.55928L22.1081 13.3398C22.1488 13.5836 22.1359 13.8334 22.0702 14.0717C22.0046 14.3101 21.8878 14.5313 21.728 14.7199C21.5682 14.9085 21.3692 15.06 21.1449 15.1639C20.9205 15.2678 20.6763 15.3216 20.4291 15.3215ZM15.0002 6.80955C14.8332 6.83115 14.6723 6.8858 14.5267 6.97028C14.3811 7.05477 14.2539 7.16742 14.1523 7.30164C13.8186 7.64822 13.6295 8.10898 13.6236 8.59007C13.6901 9.13369 14.9819 9.81199 16.1223 10.4088C16.824 10.7447 17.5551 11.0173 18.3052 11.2234L18.1215 10.1179C18.0679 9.28926 17.7267 8.50534 17.1569 7.90137C16.587 7.2974 15.8243 6.91125 15.0002 6.80955Z" fill="#FFC9C0"/>
<path d="M22.1313 19.4073V37.3844C21.4165 37.4355 20.8205 37.4525 20.4289 37.4525C20.0374 37.4525 19.4414 37.4355 18.7266 37.3844V19.4073C18.7266 18.0964 19.4925 17.0239 20.4289 17.0239C21.3653 17.0239 22.1313 18.0964 22.1313 19.4073Z" fill="#FFC9C0"/>
</svg>
