<svg width="120" height="120" viewBox="0 0 120 120" fill="none" xmlns="http://www.w3.org/2000/svg">
<g clip-path="url(#clip0_3935_9404)">
<g filter="url(#filter0_d_3935_9404)">
<path d="M90.3491 100.7C85.8457 104.901 80.1847 107.653 74.0992 108.6C71.0998 109.225 68.0579 109.626 64.9989 109.8C62.8993 109.95 61.1489 110 59.9989 110C58.8489 110 57.0985 109.95 54.999 109.8C47.649 109.3 35.8487 107.4 29.6488 100.7C23.9493 94.5499 21.9988 80.7 22.5992 69.75C22.8995 63.8001 24.2984 53.1001 30.0492 48.0501C42.3491 37.2502 77.6489 37.2502 89.9489 48.0501C95.6996 53.1001 97.0985 63.8001 97.3988 69.75C97.9992 80.6997 96.0487 94.5496 90.3491 100.7Z" fill="#FFAC9E"/>
<path d="M75.9453 9.99902C77.8543 10.0416 79.7323 10.4927 81.4521 11.3223C83.172 12.1519 84.6944 13.341 85.916 14.8086C87.3513 16.3627 88.4474 18.1988 89.1357 20.1992C89.8241 22.1997 90.0901 24.3214 89.915 26.4297C89.3639 30.9831 86.5032 33.8935 82.9365 36.2324C89.8563 37.0969 95.695 38.3945 99.373 40.123C101.286 41.2379 102.834 42.8838 103.829 44.8613C104.824 46.8388 105.223 49.0626 104.979 51.2627C105.032 53.2312 104.49 55.1704 103.423 56.8252C102.355 58.48 100.813 59.7736 98.9971 60.5361C87.9036 63.5259 76.4741 65.051 64.999 65.0801V109.799C62.8997 109.949 61.149 109.998 59.999 109.998C58.8491 109.998 57.0984 109.949 54.999 109.799L54.999 65.0801C43.5252 65.0513 32.097 63.5261 21.0049 60.5361C19.1879 59.7738 17.6435 58.4799 16.5752 56.8242C15.5069 55.1686 14.9645 53.2284 15.0186 51.2588C14.7758 49.0594 15.176 46.8369 16.1709 44.8604C17.1658 42.8838 18.7128 41.2383 20.624 40.123C24.3032 38.3946 30.1425 37.0969 37.0625 36.2324C33.4972 33.8924 30.6378 30.9799 30.085 26.4297C29.9077 24.3214 30.1713 22.199 30.8594 20.1982C31.5475 18.1975 32.6455 16.3619 34.082 14.8086C35.3041 13.341 36.8266 12.1519 38.5469 11.3223C40.2671 10.4927 42.1453 10.0415 44.0547 9.99902C48.8518 10.2757 53.3959 12.2435 56.8799 15.5527C58.0763 16.6891 59.1206 17.9587 59.998 19.3291C60.8758 17.9582 61.9213 16.6885 63.1182 15.5518C66.6026 12.2425 71.1477 10.2752 75.9453 9.99902ZM44.0547 19.999C43.5644 20.0625 43.0916 20.2235 42.6641 20.4717C42.2366 20.7198 41.8627 21.0502 41.5645 21.4443C40.5844 22.4622 40.0291 23.8156 40.0117 25.2285C40.207 26.8252 44.001 28.8174 47.3506 30.5703C49.4114 31.5567 51.5587 32.3574 53.7617 32.9629L53.2227 29.7158C53.0651 27.2821 52.0623 24.9799 50.3887 23.2061C48.715 21.4322 46.4751 20.2977 44.0547 19.999ZM75.9453 19.999C73.5246 20.2976 71.2834 21.4312 69.6094 23.2051C67.9353 24.9789 66.9334 27.2819 66.7754 29.7158L66.2383 32.9629C68.4407 32.3579 70.5848 31.5572 72.6445 30.5703L72.6494 30.5703C75.9989 28.8174 79.7927 26.8253 79.9834 25.2285C79.966 23.8166 79.4126 22.4638 78.4355 21.4443C78.1366 21.0507 77.7624 20.7198 77.335 20.4717C76.9076 20.2237 76.4352 20.0633 75.9453 19.999Z" fill="url(#paint0_linear_3935_9404)"/>
</g>
</g>
<defs>
<filter id="filter0_d_3935_9404" x="2.31769" y="0.525378" width="115.363" height="125.264" filterUnits="userSpaceOnUse" color-interpolation-filters="sRGB">
<feFlood flood-opacity="0" result="BackgroundImageFix"/>
<feColorMatrix in="SourceAlpha" type="matrix" values="0 0 0 0 0 0 0 0 0 0 0 0 0 0 0 0 0 0 127 0" result="hardAlpha"/>
<feOffset dy="3.15788"/>
<feGaussianBlur stdDeviation="6.31576"/>
<feComposite in2="hardAlpha" operator="out"/>
<feColorMatrix type="matrix" values="0 0 0 0 0.0666667 0 0 0 0 0.0666667 0 0 0 0 0.0666667 0 0 0 0.24 0"/>
<feBlend mode="normal" in2="BackgroundImageFix" result="effect1_dropShadow_3935_9404"/>
<feBlend mode="normal" in="SourceGraphic" in2="effect1_dropShadow_3935_9404" result="shape"/>
</filter>
<linearGradient id="paint0_linear_3935_9404" x1="6.54989" y1="18.9344" x2="113.826" y2="65.7651" gradientUnits="userSpaceOnUse">
<stop stop-color="#FF7760"/>
<stop offset="1" stop-color="#FF4B2C"/>
</linearGradient>
<clipPath id="clip0_3935_9404">
<rect width="119.999" height="119.999" fill="white"/>
</clipPath>
</defs>
</svg>
