<svg width="32" height="32" viewBox="0 0 32 32" fill="none" xmlns="http://www.w3.org/2000/svg">
<rect width="32" height="32" rx="12" fill="#FFE4CB"/>
<path d="M6.62646 12.4924C6.62646 11.4741 7.36355 10.616 8.37728 10.5201C9.91073 10.375 12.4515 10.2072 15.9995 10.207C19.5478 10.2069 22.0886 10.3748 23.622 10.52C24.6356 10.6159 25.3725 11.474 25.3725 12.4921V12.5664C25.3725 13.8078 24.2932 14.7791 23.0557 14.6803C21.2541 14.5365 18.6268 14.3728 15.9995 14.3728C13.3722 14.3728 10.7449 14.5365 8.94332 14.6803C7.70582 14.7791 6.62646 13.8078 6.62646 12.5664V12.4924Z" stroke="#FE5209" stroke-width="1.87947"/>
<path d="M7.6677 14.8957C7.6677 14.8957 11.3128 14.375 15.9993 14.375C20.6858 14.375 24.3309 14.8957 24.3309 14.8957C24.3309 14.8957 24.8516 16.4579 24.8516 20.103C24.8516 22.115 24.5342 23.6511 24.2499 24.6236C24.0285 25.3809 23.3118 25.8309 22.5228 25.8309H9.47572C8.68678 25.8309 7.97004 25.3809 7.74864 24.6236C7.46431 23.6511 7.14697 22.115 7.14697 20.103C7.14697 16.4579 7.6677 14.8957 7.6677 14.8957Z" stroke="#FE5209" stroke-width="1.87947"/>
<path d="M15.9995 10.207V25.8287" stroke="#FE5209" stroke-width="1.87947"/>
<path fill-rule="evenodd" clip-rule="evenodd" d="M13.395 7.08203C14.2577 7.08203 14.9575 7.78182 14.9575 8.64453C14.9575 9.5073 14.2578 10.207 13.395 10.207C12.5323 10.207 11.8325 9.50726 11.8325 8.64453C11.8326 7.78185 12.5323 7.08209 13.395 7.08203ZM16.6894 10.2074C16.9145 9.73373 17.0405 9.20383 17.0405 8.64453C17.0405 6.63146 15.4081 5 13.395 5C11.382 5.00006 9.75054 6.6315 9.75049 8.64453C9.75049 9.20383 9.87642 9.73373 10.1015 10.2074H16.6894Z" fill="#FE5209"/>
<path fill-rule="evenodd" clip-rule="evenodd" d="M18.6021 7.08203C19.4648 7.08203 20.1645 7.78182 20.1646 8.64453C20.1646 9.5073 19.4648 10.207 18.6021 10.207C17.7393 10.207 17.0396 9.50726 17.0396 8.64453C17.0396 7.78185 17.7394 7.08209 18.6021 7.08203ZM21.8964 10.2074C22.1216 9.73373 22.2476 9.20383 22.2476 8.64453C22.2475 6.63146 20.6151 5 18.6021 5C16.589 5.00006 14.9576 6.6315 14.9575 8.64453C14.9575 9.20383 15.0835 9.73373 15.3085 10.2074H21.8964Z" fill="#FE5209"/>
</svg>
