<svg width="26" height="28" viewBox="0 0 26 28" fill="none" xmlns="http://www.w3.org/2000/svg">
<g filter="url(#filter0_d_2728_19621)">
<path d="M5.16357 8.09828C5.16357 7.24691 5.77985 6.52945 6.62744 6.44927C7.90956 6.32797 10.0339 6.18762 13.0004 6.1875C15.9671 6.18738 18.0915 6.32778 19.3736 6.44916C20.2211 6.52939 20.8372 7.24678 20.8372 8.09805V8.16018C20.8372 9.19814 19.9348 10.0102 18.9001 9.92761C17.3938 9.80736 15.1971 9.67053 13.0004 9.67053C10.8037 9.67053 8.60702 9.80736 7.1007 9.92761C6.06603 10.0102 5.16357 9.19814 5.16357 8.16018V8.09828Z" stroke="white" stroke-width="1.5675"/>
<path d="M6.03401 10.1073C6.03401 10.1073 9.08166 9.67187 13.0001 9.67188C16.9185 9.67188 19.9661 10.1073 19.9661 10.1073C19.9661 10.1073 20.4015 11.4134 20.4015 14.461C20.4015 16.1434 20.1362 17.4277 19.8985 18.2408C19.7133 18.8739 19.1141 19.2502 18.4544 19.2502H7.54571C6.88607 19.2502 6.2868 18.8739 6.10169 18.2408C5.86396 17.4277 5.59863 16.1434 5.59863 14.461C5.59863 11.4134 6.03401 10.1073 6.03401 10.1073Z" stroke="white" stroke-width="1.5675"/>
<path d="M13 6.1875V19.2489" stroke="white" stroke-width="1.5675"/>
<path fill-rule="evenodd" clip-rule="evenodd" d="M10.8237 3.57422C11.545 3.57422 12.1303 4.15859 12.1304 4.87988C12.1304 5.60124 11.5451 6.18652 10.8237 6.18652C10.1024 6.18645 9.51807 5.6012 9.51807 4.87988C9.51814 4.15863 10.1025 3.57429 10.8237 3.57422ZM13.5777 6.18717C13.7661 5.791 13.8716 5.34774 13.8716 4.87988C13.8715 3.19677 12.5069 1.83203 10.8237 1.83203C9.14067 1.83211 7.77595 3.19682 7.77588 4.87988C7.77588 5.34774 7.88133 5.791 8.06976 6.18717H13.5777Z" fill="white"/>
<path fill-rule="evenodd" clip-rule="evenodd" d="M15.176 3.57422C15.8973 3.57422 16.4826 4.15859 16.4827 4.87988C16.4827 5.60124 15.8974 6.18652 15.176 6.18652C14.4547 6.18645 13.8704 5.6012 13.8704 4.87988C13.8704 4.15863 14.4548 3.57429 15.176 3.57422ZM17.93 6.18717C18.1184 5.791 18.2239 5.34774 18.2239 4.87988C18.2238 3.19677 16.8592 1.83203 15.176 1.83203C13.493 1.83211 12.1282 3.19682 12.1282 4.87988C12.1282 5.34774 12.2336 5.791 12.4221 6.18717H17.93Z" fill="white"/>
</g>
<defs>
<filter id="filter0_d_2728_19621" x="0.713216" y="1.83203" width="24.5743" height="25.5365" filterUnits="userSpaceOnUse" color-interpolation-filters="sRGB">
<feFlood flood-opacity="0" result="BackgroundImageFix"/>
<feColorMatrix in="SourceAlpha" type="matrix" values="0 0 0 0 0 0 0 0 0 0 0 0 0 0 0 0 0 0 127 0" result="hardAlpha"/>
<feOffset dy="3.66667"/>
<feGaussianBlur stdDeviation="1.83333"/>
<feComposite in2="hardAlpha" operator="out"/>
<feColorMatrix type="matrix" values="0 0 0 0 0 0 0 0 0 0 0 0 0 0 0 0 0 0 0.25 0"/>
<feBlend mode="normal" in2="BackgroundImageFix" result="effect1_dropShadow_2728_19621"/>
<feBlend mode="normal" in="SourceGraphic" in2="effect1_dropShadow_2728_19621" result="shape"/>
</filter>
</defs>
</svg>
