<svg width="28" height="28" viewBox="0 0 28 28" fill="none" xmlns="http://www.w3.org/2000/svg">
<circle cx="14" cy="14" r="10.5" stroke="#111111" stroke-width="2"/>
<path d="M15.0048 16.38H12.9711L12.7558 8.28516H15.2281L15.0048 16.38ZM13.9919 19.9769C13.7527 19.9769 13.5294 19.9157 13.322 19.7935C13.1147 19.6659 12.9498 19.501 12.8276 19.299C12.7106 19.0916 12.6521 18.8683 12.6521 18.6291C12.6521 18.3951 12.7106 18.1771 12.8276 17.9751C12.9498 17.7677 13.1147 17.6056 13.322 17.4886C13.5294 17.3716 13.7527 17.3132 13.9919 17.3132C14.2259 17.3132 14.4439 17.3716 14.6459 17.4886C14.8533 17.6056 15.0181 17.7677 15.1404 17.9751C15.268 18.1771 15.3318 18.3951 15.3318 18.6291C15.3318 18.8683 15.268 19.0916 15.1404 19.299C15.0181 19.501 14.8533 19.6659 14.6459 19.7935C14.4439 19.9157 14.2259 19.9769 13.9919 19.9769Z" fill="#111111"/>
</svg>
