<svg width="28" height="28" viewBox="0 0 28 28" fill="none" xmlns="http://www.w3.org/2000/svg">
<g filter="url(#filter0_d_3935_9421)">
<path d="M3.5 11.6156C3.5 10.1755 4.16487 8.81605 5.30161 7.93192L11.1349 3.39488C12.8201 2.08419 15.1799 2.08418 16.8651 3.39488L22.6984 7.93192C23.8351 8.81605 24.5 10.1755 24.5 11.6156V18.6665C24.5 21.2438 22.4107 23.3332 19.8333 23.3332H8.16667C5.58934 23.3332 3.5 21.2438 3.5 18.6665V11.6156Z" fill="url(#paint0_linear_3935_9421)"/>
</g>
<path d="M9.33301 11.0835C9.33301 10.117 10.1165 9.3335 11.083 9.3335C12.0495 9.3335 12.833 10.117 12.833 11.0835C12.833 12.05 12.0495 12.8335 11.083 12.8335C10.1165 12.8335 9.33301 12.05 9.33301 11.0835Z" fill="#111111"/>
<path d="M15.167 11.0835C15.167 10.117 15.9505 9.3335 16.917 9.3335C17.8835 9.3335 18.667 10.117 18.667 11.0835C18.667 12.05 17.8835 12.8335 16.917 12.8335C15.9505 12.8335 15.167 12.05 15.167 11.0835Z" fill="#111111"/>
<path d="M9.33301 16.9165C9.33301 15.95 10.1165 15.1665 11.083 15.1665C12.0495 15.1665 12.833 15.95 12.833 16.9165C12.833 17.883 12.0495 18.6665 11.083 18.6665C10.1165 18.6665 9.33301 17.883 9.33301 16.9165Z" fill="#111111"/>
<path d="M15.167 16.9165C15.167 15.95 15.9505 15.1665 16.917 15.1665C17.8835 15.1665 18.667 15.95 18.667 16.9165C18.667 17.883 17.8835 18.6665 16.917 18.6665C15.9505 18.6665 15.167 17.883 15.167 16.9165Z" fill="#111111"/>
<defs>
<filter id="filter0_d_3935_9421" x="1.5" y="1.41162" width="25" height="24.9214" filterUnits="userSpaceOnUse" color-interpolation-filters="sRGB">
<feFlood flood-opacity="0" result="BackgroundImageFix"/>
<feColorMatrix in="SourceAlpha" type="matrix" values="0 0 0 0 0 0 0 0 0 0 0 0 0 0 0 0 0 0 127 0" result="hardAlpha"/>
<feOffset dy="1"/>
<feGaussianBlur stdDeviation="1"/>
<feComposite in2="hardAlpha" operator="out"/>
<feColorMatrix type="matrix" values="0 0 0 0 0.0666667 0 0 0 0 0.0666667 0 0 0 0 0.0666667 0 0 0 0.24 0"/>
<feBlend mode="normal" in2="BackgroundImageFix" result="effect1_dropShadow_3935_9421"/>
<feBlend mode="normal" in="SourceGraphic" in2="effect1_dropShadow_3935_9421" result="shape"/>
</filter>
<linearGradient id="paint0_linear_3935_9421" x1="3.5" y1="1" x2="24.5" y2="23" gradientUnits="userSpaceOnUse">
<stop stop-color="white"/>
<stop offset="1" stop-color="#FFF5F3"/>
</linearGradient>
</defs>
</svg>
