<svg width="20" height="20" viewBox="0 0 20 20" fill="none" xmlns="http://www.w3.org/2000/svg">
<circle cx="10" cy="10" r="10" fill="#F4F4F6"/>
<path d="M11.25 5.625C11.25 6.31536 10.6904 6.875 10 6.875C9.30964 6.875 8.75 6.31536 8.75 5.625C8.75 4.93464 9.30964 4.375 10 4.375C10.6904 4.375 11.25 4.93464 11.25 5.625Z" fill="#111111"/>
<path d="M9.0625 8.4375C9.0625 7.91973 9.48223 7.5 10 7.5V7.5C10.5178 7.5 10.9375 7.91973 10.9375 8.4375V14.6875C10.9375 15.2053 10.5178 15.625 10 15.625V15.625C9.48223 15.625 9.0625 15.2053 9.0625 14.6875V8.4375Z" fill="#111111"/>
</svg>
