<svg width="45" height="45" viewBox="0 0 45 45" fill="none" xmlns="http://www.w3.org/2000/svg">
<g filter="url(#filter0_d_3935_9417)">
<circle cx="22.2854" cy="21.3562" r="11.1429" fill="white"/>
<path fill-rule="evenodd" clip-rule="evenodd" d="M21.1417 3.17959C21.8136 2.65433 22.757 2.65433 23.4289 3.17959L26.5105 5.58821L30.3836 5.04306C31.2282 4.92419 32.0451 5.39586 32.3646 6.18675L33.8289 9.81347L37.4556 11.2779C38.2465 11.5972 38.7182 12.4142 38.5994 13.2588L38.0541 17.1318L40.4628 20.2135C40.988 20.8854 40.988 21.8288 40.4628 22.5007L38.0541 25.5823L38.5994 29.4553C38.7182 30.3 38.2465 31.1169 37.4556 31.4364L33.8289 32.9007L32.3646 36.5273C32.0451 37.3183 31.2282 37.79 30.3836 37.6712L26.5105 37.1259L23.4289 39.5346C22.757 40.0598 21.8136 40.0598 21.1417 39.5346L18.06 37.1259L14.187 37.6712C13.3424 37.79 12.5254 37.3183 12.2061 36.5273L10.7417 32.9007L7.11497 31.4364C6.32409 31.1169 5.85241 30.3 5.97128 29.4553L6.51643 25.5823L4.10781 22.5007C3.58255 21.8288 3.58255 20.8854 4.10781 20.2135L6.51643 17.1318L5.97128 13.2588C5.85241 12.4142 6.32409 11.5972 7.11497 11.2779L10.7417 9.81347L12.2061 6.18675C12.5254 5.39586 13.3424 4.92419 14.187 5.04306L18.06 5.58821L21.1417 3.17959ZM29.1699 18.956C29.8951 18.2308 29.8951 17.0549 29.1699 16.3296C28.4447 15.6043 27.2688 15.6043 26.5435 16.3296L20.4282 22.445L18.0271 20.0439C17.3018 19.3187 16.1259 19.3187 15.4007 20.0439C14.6754 20.7691 14.6754 21.9451 15.4007 22.6703L19.115 26.3846C19.8402 27.1098 21.0161 27.1098 21.7413 26.3846L29.1699 18.956Z" fill="#FF5437"/>
</g>
<defs>
<filter id="filter0_d_3935_9417" x="-0.000418663" y="-6.98566e-05" width="44.5711" height="44.5716" filterUnits="userSpaceOnUse" color-interpolation-filters="sRGB">
<feFlood flood-opacity="0" result="BackgroundImageFix"/>
<feColorMatrix in="SourceAlpha" type="matrix" values="0 0 0 0 0 0 0 0 0 0 0 0 0 0 0 0 0 0 127 0" result="hardAlpha"/>
<feOffset dy="0.928571"/>
<feGaussianBlur stdDeviation="1.85714"/>
<feComposite in2="hardAlpha" operator="out"/>
<feColorMatrix type="matrix" values="0 0 0 0 0.0666667 0 0 0 0 0.0666667 0 0 0 0 0.0666667 0 0 0 0.32 0"/>
<feBlend mode="normal" in2="BackgroundImageFix" result="effect1_dropShadow_3935_9417"/>
<feBlend mode="normal" in="SourceGraphic" in2="effect1_dropShadow_3935_9417" result="shape"/>
</filter>
</defs>
</svg>
