<svg width="28" height="28" viewBox="0 0 28 28" fill="none" xmlns="http://www.w3.org/2000/svg">
<g filter="url(#filter0_d_3943_2624)">
<path d="M23 6C24.6569 6 26 7.34315 26 9V12.0771C25.9999 12.3259 25.7488 12.5 25.5 12.5C24.6716 12.5 24 13.1716 24 14C24 14.8284 24.6716 15.5 25.5 15.5C25.7488 15.5 25.9998 15.6732 26 15.9219V19C26 20.6569 24.6569 22 23 22H5C3.34315 22 2 20.6569 2 19V15.9219C2.00025 15.6732 2.25121 15.5 2.5 15.5C3.32843 15.5 4 14.8284 4 14C4 13.1716 3.32843 12.5 2.5 12.5C2.25122 12.5 2.00013 12.3259 2 12.0771V9C2 7.34315 3.34315 6 5 6H23Z" fill="url(#paint0_linear_3943_2624)"/>
</g>
<path d="M10 6H12V9C12 9.55228 11.5523 10 11 10V10C10.4477 10 10 9.55228 10 9V6Z" fill="#0C0C0C"/>
<path d="M12 22L10 22L10 19C10 18.4477 10.4477 18 11 18V18C11.5523 18 12 18.4477 12 19L12 22Z" fill="#0C0C0C"/>
<rect x="12" y="16" width="2" height="4" rx="1" transform="rotate(-180 12 16)" fill="#0C0C0C"/>
<defs>
<filter id="filter0_d_3943_2624" x="0" y="5" width="28" height="20" filterUnits="userSpaceOnUse" color-interpolation-filters="sRGB">
<feFlood flood-opacity="0" result="BackgroundImageFix"/>
<feColorMatrix in="SourceAlpha" type="matrix" values="0 0 0 0 0 0 0 0 0 0 0 0 0 0 0 0 0 0 127 0" result="hardAlpha"/>
<feOffset dy="1"/>
<feGaussianBlur stdDeviation="1"/>
<feComposite in2="hardAlpha" operator="out"/>
<feColorMatrix type="matrix" values="0 0 0 0 0.0666667 0 0 0 0 0.0666667 0 0 0 0 0.0666667 0 0 0 0.24 0"/>
<feBlend mode="normal" in2="BackgroundImageFix" result="effect1_dropShadow_3943_2624"/>
<feBlend mode="normal" in="SourceGraphic" in2="effect1_dropShadow_3943_2624" result="shape"/>
</filter>
<linearGradient id="paint0_linear_3943_2624" x1="2" y1="6.5" x2="26" y2="22" gradientUnits="userSpaceOnUse">
<stop offset="0.427885" stop-color="white"/>
<stop offset="1" stop-color="#F1DDDA"/>
</linearGradient>
</defs>
</svg>
