<svg width="20" height="20" viewBox="0 0 20 20" fill="none" xmlns="http://www.w3.org/2000/svg">
<g filter="url(#filter0_d_94_1945)">
<path d="M16.4287 4.28577C17.6119 4.28592 18.5711 5.24516 18.5713 6.42834V8.62659C18.5711 8.80432 18.3917 8.92828 18.2139 8.92834C17.6225 8.92857 17.1429 9.4083 17.1426 9.99963C17.1426 10.5912 17.6223 11.0717 18.2139 11.0719C18.3918 11.072 18.5713 11.1957 18.5713 11.3737V13.5719C18.5711 14.7551 17.6119 15.7143 16.4287 15.7145H3.57129C2.388 15.7144 1.4289 14.7552 1.42871 13.5719V11.3737C1.42871 11.1957 1.60814 11.0719 1.78613 11.0719C2.37761 11.0716 2.85742 10.5912 2.85742 9.99963C2.85712 9.40834 2.37742 8.92865 1.78613 8.92834C1.6083 8.92834 1.4289 8.80437 1.42871 8.62659V6.42834C1.42894 5.24512 2.38803 4.28584 3.57129 4.28577H16.4287Z" fill="url(#paint0_linear_94_1945)"/>
</g>
<path d="M7.14355 4.28589H8.57213V6.42875C8.57213 6.82323 8.25233 7.14303 7.85784 7.14303C7.46335 7.14303 7.14355 6.82324 7.14355 6.42875V4.28589Z" fill="#0C0C0C"/>
<path d="M8.57178 15.7144L7.14321 15.7144L7.14321 13.5715C7.14321 13.177 7.463 12.8572 7.85749 12.8572C8.25198 12.8572 8.57178 13.177 8.57178 13.5715L8.57178 15.7144Z" fill="#0C0C0C"/>
<rect x="8.57178" y="11.4287" width="1.42857" height="2.85714" rx="0.714286" transform="rotate(-180 8.57178 11.4287)" fill="#0C0C0C"/>
<defs>
<filter id="filter0_d_94_1945" x="0.000139475" y="3.57148" width="19.9997" height="14.2859" filterUnits="userSpaceOnUse" color-interpolation-filters="sRGB">
<feFlood flood-opacity="0" result="BackgroundImageFix"/>
<feColorMatrix in="SourceAlpha" type="matrix" values="0 0 0 0 0 0 0 0 0 0 0 0 0 0 0 0 0 0 127 0" result="hardAlpha"/>
<feOffset dy="0.714286"/>
<feGaussianBlur stdDeviation="0.714286"/>
<feComposite in2="hardAlpha" operator="out"/>
<feColorMatrix type="matrix" values="0 0 0 0 0.0666667 0 0 0 0 0.0666667 0 0 0 0 0.0666667 0 0 0 0.24 0"/>
<feBlend mode="normal" in2="BackgroundImageFix" result="effect1_dropShadow_94_1945"/>
<feBlend mode="normal" in="SourceGraphic" in2="effect1_dropShadow_94_1945" result="shape"/>
</filter>
<linearGradient id="paint0_linear_94_1945" x1="1.42871" y1="4.64291" x2="18.5716" y2="15.714" gradientUnits="userSpaceOnUse">
<stop stop-color="#FA8774"/>
<stop offset="0.729509" stop-color="#FF583B"/>
</linearGradient>
</defs>
</svg>
